<?xml version="1.0" encoding="utf-8"?>
<!-- Generator: Adobe Illustrator 21.0.0, SVG Export Plug-In . SVG Version: 6.00 Build 0)  -->
<svg version="1.1" id="Layer_1" xmlns="http://www.w3.org/2000/svg" xmlns:xlink="http://www.w3.org/1999/xlink" x="0px" y="0px"
	 viewBox="0 0 21 28" style="enable-background:new 0 0 21 28;" xml:space="preserve">
<style type="text/css">
	.st0{fill:#15CA8A;}
	.st1{fill:url(#SVGID_1_);}
</style>
<path class="st0" d="M20.1,13.4c-0.3,0.9-1.2,1.7-1.8,1.6l-5.9-2v4.5l7.3,7.3c0.6,0.6,0.5,1.8-0.3,2.6s-1.9,0.9-2.6,0.3l-6.5-6.5
	L4,27.6c-0.6,0.6-1.8,0.5-2.6-0.3c-0.8-0.8-0.9-1.9-0.3-2.6l7.4-7.4v-4.8l-6.1,2.1c-0.5,0.2-1.4-0.7-1.8-1.6
	c-0.3-0.9-0.1-1.8,0.4-1.9l8.4-2.8c0.1,0,0.2,0,0.3,0c0.1,0,0.1,0,0.2,0c-2-0.3-3.5-1.9-3.5-3.9c0-2.2,1.8-4,4-4c2.2,0,4,1.8,4,4
	c0,2-1.5,3.7-3.5,4c0.3,0.1,0.6,0.3,0.8,0.4l7.8,2.7C20.2,11.7,20.4,12.5,20.1,13.4z"/>
<linearGradient id="SVGID_1_" gradientUnits="userSpaceOnUse" x1="-278.6121" y1="396.2065" x2="-278.6121" y2="397.2065" gradientTransform="matrix(19.7476 0 0 -27.6217 5512.3066 10971.9492)">
	<stop  offset="0" style="stop-color:#942291"/>
	<stop  offset="1" style="stop-color:#FF386E"/>
</linearGradient>
<path class="st1" d="M20.1,13.4c-0.3,0.9-1.2,1.7-1.8,1.6l-5.9-2v4.5l7.3,7.3c0.6,0.6,0.5,1.8-0.3,2.6s-1.9,0.9-2.6,0.3l-6.5-6.5
	L4,27.6c-0.6,0.6-1.8,0.5-2.6-0.3c-0.8-0.8-0.9-1.9-0.3-2.6l7.4-7.4v-4.8l-6.1,2.1c-0.5,0.2-1.4-0.7-1.8-1.6
	c-0.3-0.9-0.1-1.8,0.4-1.9l8.4-2.8c0.1,0,0.2,0,0.3,0c0.1,0,0.1,0,0.2,0c-2-0.3-3.5-1.9-3.5-3.9c0-2.2,1.8-4,4-4c2.2,0,4,1.8,4,4
	c0,2-1.5,3.7-3.5,4c0.3,0.1,0.6,0.3,0.8,0.4l7.8,2.7C20.2,11.7,20.4,12.5,20.1,13.4z"/>
</svg>
